<?xml version="1.0" standalone="no"?>
<!DOCTYPE svg PUBLIC "-//W3C//DTD SVG 20010904//EN"
 "http://www.w3.org/TR/2001/REC-SVG-20010904/DTD/svg10.dtd">
<svg version="1.0" xmlns="http://www.w3.org/2000/svg"
 width="1000.000000pt" height="1000.000000pt" viewBox="0 0 1000.000000 1000.000000"
 preserveAspectRatio="xMidYMid meet">
<metadata>
Created by potrace 1.14, written by Peter Selinger 2001-2017
</metadata>
<g transform="translate(0.000000,1000.000000) scale(0.100000,-0.100000)"
fill="#000000" stroke="none">
<path d="M0 5000 l0 -5000 5000 0 5000 0 0 5000 0 5000 -5000 0 -5000 0 0
-5000z m6755 1917 c206 -3 225 -5 300 -30 176 -58 328 -185 403 -337 81 -166
76 -99 80 -1075 3 -986 5 -957 -74 -1124 -38 -82 -57 -107 -133 -182 -71 -70
-104 -95 -172 -127 -171 -81 -47 -75 -1584 -79 -753 -2 -1432 -7 -1509 -12
-155 -11 -178 -21 -195 -90 -5 -20 -12 -157 -15 -306 -4 -148 -9 -286 -13
-305 -8 -50 -37 -104 -72 -133 -54 -45 -101 -48 -648 -45 l-508 3 -47 23 c-49
24 -82 65 -99 124 -14 50 -13 3498 2 3551 16 60 42 92 97 119 l47 23 890 5
c923 5 2866 4 3250 -3z"/>
<path d="M3047 6554 c-1 -1 -34 -4 -74 -6 -66 -4 -73 -7 -100 -38 -15 -18 -31
-40 -34 -49 -11 -29 -14 -312 -14 -1501 0 -1213 4 -1400 27 -1441 36 -64 64
-71 283 -70 212 1 239 4 275 30 54 39 58 57 64 321 4 135 11 274 15 311 14
107 51 161 135 198 68 29 280 32 1771 29 l1510 -3 57 23 c71 29 148 101 177
167 12 27 26 79 31 117 13 86 11 1533 -1 1611 -26 160 -132 269 -287 294 -26
5 -227 7 -447 6 -695 -2 -2452 -2 -2928 0 -252 2 -459 2 -460 1z m2832 -394
c113 -2 207 -8 243 -16 167 -39 299 -156 359 -316 37 -99 47 -572 15 -698 -52
-203 -216 -351 -421 -378 -72 -10 -298 -12 -1395 -12 -758 0 -954 5 -1030 26
-66 19 -132 80 -150 139 -16 51 -24 960 -9 1049 26 154 107 202 346 205 59 1
108 3 109 4 3 3 1686 0 1933 -3z"/>
<path d="M4420 5777 c-3 -3 -104 -7 -225 -9 -326 -7 -320 -1 -319 -323 2 -239
4 -248 78 -288 l41 -22 1005 0 c985 0 1006 0 1045 20 74 37 80 60 80 302 l0
211 -31 38 c-53 66 -32 65 -894 71 -426 2 -777 3 -780 0z"/>
</g>
</svg>
